<?xml version="1.0" encoding="UTF-8"?>
<svg width="171.6" height="171.6" version="1.0" viewBox="0 0 171.6 171.6" xml:space="preserve" xmlns="http://www.w3.org/2000/svg" xmlns:cc="http://creativecommons.org/ns#" xmlns:dc="http://purl.org/dc/elements/1.1/" xmlns:rdf="http://www.w3.org/1999/02/22-rdf-syntax-ns#" xmlns:xlink="http://www.w3.org/1999/xlink"><metadata><rdf:RDF><cc:Work rdf:about=""><dc:format>image/svg+xml</dc:format><dc:type rdf:resource="http://purl.org/dc/dcmitype/StillImage"/><dc:title/></cc:Work></rdf:RDF></metadata>
<style type="text/css">
	.st0{clip-path:url(#SVGID_2_);}
	.st1{fill:#5865F2;}
	.st2{fill:#FFFFFF;}
	.st3{fill:none;}
</style>
<g transform="translate(-78,-31)">
	<defs>
		<rect id="SVGID_1_" x="78" y="31" width="172" height="172"/>
	</defs>
	<clipPath id="SVGID_2_">
		<use width="100%" height="100%" xlink:href="#SVGID_1_"/>
	</clipPath>
	<g class="st0" clip-path="url(#SVGID_2_)">
		<path class="st1" d="m78 116.8c0-47.4 38.4-85.8 85.8-85.8s85.8 38.4 85.8 85.8-38.4 85.8-85.8 85.8c-47.4-0.1-85.8-38.5-85.8-85.8z"/>
		<path class="st2" d="m202.4 81.9c-7.3-3.3-14.9-5.7-22.8-7-1 1.8-2.1 4.1-2.9 6-8.4-1.3-16.9-1.3-25.3 0-0.9-2.1-1.9-4.1-3-6-7.9 1.3-15.6 3.7-22.8 7.1-14.4 21.5-18.3 42.4-16.4 63.1 8.5 6.3 17.9 11.1 28 14.1 2.3-3.1 4.3-6.3 6-9.7-3.3-1.2-6.4-2.7-9.4-4.5 0.8-0.6 1.5-1.2 2.3-1.8 17.7 8.4 38.3 8.4 56 0 0.8 0.6 1.5 1.2 2.3 1.8-3 1.8-6.2 3.3-9.5 4.5 1.7 3.4 3.7 6.6 6 9.7 10.1-3.1 19.6-7.8 28-14.1 2.2-24-4-44.8-16.5-63.2zm-56.8 50.4c-5.5 0-9.9-5-9.9-11.1s4.4-11.2 9.9-11.2c5.6 0 10 5 10 11.2-0.1 6.1-4.4 11.1-10 11.1zm36.8 0c-5.5 0-9.9-5-9.9-11.1s4.4-11.2 9.9-11.2c5.6 0 10 5 9.9 11.2s-4.4 11.1-9.9 11.1z"/>
	</g>
</g>

</svg>
