<?xml version="1.0" encoding="UTF-8"?>
<svg width="446.84" height="446.86" version="1.1" viewBox="0 0 118.23 118.23" xmlns="http://www.w3.org/2000/svg" xmlns:cc="http://creativecommons.org/ns#" xmlns:dc="http://purl.org/dc/elements/1.1/" xmlns:rdf="http://www.w3.org/1999/02/22-rdf-syntax-ns#">
 <metadata>
  <rdf:RDF>
   <cc:Work rdf:about="">
    <dc:format>image/svg+xml</dc:format>
    <dc:type rdf:resource="http://purl.org/dc/dcmitype/StillImage"/>
    <dc:title/>
   </cc:Work>
  </rdf:RDF>
 </metadata>
 <g transform="translate(20.559 23.588)" stroke-width=".23091">
  <path d="m-19.341 94.187c-0.97552-0.5948-1.1049-1.2323-0.76656-3.7786 0.43331-3.2614 2.3304-12.474 2.6297-12.771 0.27352-0.27069 9.8261-1.7233 10.138-1.5416 0.09525 0.05548 0.17318 0.72336 0.17318 1.4842 0 2.1933 1.0869 3.6694 2.7018 3.6694 1.6145 0 1.7223 0.1957 1.5651 2.842-0.1693 2.8496-0.73837 7.1146-0.98177 7.358-0.31869 0.31869-13.304 3.195-14.41 3.1919-0.16769-4.61e-4 -0.63981-0.20507-1.0492-0.45466zm63.024-0.75675c-0.13077-0.15875-0.46869-1.1199-0.75094-2.1359-0.28224-1.016-0.70061-2.5227-0.9297-3.3482-0.65142-2.3473-0.79614-3.7089-0.41956-3.9474 0.17527-0.11101 0.89018-0.20385 1.5887-0.20631 3.7223-0.01309 9.8157-1.5529 15.663-3.9579 0.68847-0.28319 0.8002-0.27384 1.0656 0.08916 0.16309 0.22304 0.3624 0.88612 0.44291 1.4735 0.08051 0.5874 0.51748 2.4033 0.97103 4.0352 0.45356 1.632 0.75835 3.0745 0.67731 3.2056-0.69548 1.1253-9.6771 3.8807-15.386 4.72-2.9345 0.43146-2.6327 0.424-2.9225 0.07221zm-24.757-2.6876c-3.0852-1.1253-4.6282-1.7508-5.8237-2.3607-0.9369-0.47797-0.98042-0.47936-2.7878-0.08884-2.227 0.48117-2.3202 0.40575-2.14-1.7324 0.069543-0.8255 0.12718-2.7539 0.12809-4.2854 0.00115-1.8867 0.096358-2.914 0.2954-3.1862 0.17633-0.24115 1.2084-0.63398 2.5818-0.98273 2.288-0.58099 2.288-0.58099 5.5222 0.95784 1.7788 0.84636 4.5795 1.9892 6.2237 2.5397 1.6442 0.55048 3.0934 1.1048 3.2204 1.2318 0.26754 0.26754-0.70261 2.7395-2.4919 6.3493-0.97111 1.9592-1.2531 2.3486-1.7318 2.3912-0.3145 0.02799-1.6629-0.34707-2.9964-0.83347zm58.651-15.61c-0.9525-0.69258-2.4839-1.8072-3.4031-2.4769-0.91919-0.66973-1.7237-1.3543-1.7877-1.5213-0.06522-0.16997 0.7985-1.2641 1.9625-2.4859 3.2871-3.4505 5.7194-6.9304 7.937-11.355 0.46144-0.92075 0.96986-1.6741 1.1298-1.6741 0.15997 0 0.65223 0.29065 1.0939 0.6459 0.44168 0.35524 1.6863 1.241 2.7658 1.9683 1.0795 0.72733 2.3737 1.6691 2.876 2.0929 0.91327 0.77043 0.91327 0.77043-0.42782 3.1694-1.5744 2.8164-3.1222 5.152-5.1092 7.7099-2.048 2.6364-4.4757 5.1962-4.9229 5.1909-0.21036-0.0025-1.1618-0.57126-2.1143-1.2638zm-44.675-3.7165c-5.8755-0.91293-12.585-3.6748-16.975-6.9875-2.2071-1.6654-5.2904-4.7471-6.9682-6.9646-1.6837-2.2254-4.3152-7.2983-5.3711-10.354-1.543-4.4661-1.8472-6.4487-1.8472-12.041 0-4.2624 0.072218-5.2959 0.51064-7.3078 2.4484-11.235 9.3841-20.306 19.461-25.452 10.407-5.3145 22.814-5.3145 33.221 0 3.5641 1.8201 6.5398 3.9821 9.3536 6.796 9.5575 9.5575 13.065 23.341 9.2648 36.404-3.5115 12.069-13.791 22.019-25.942 25.109-4.5844 1.166-10.335 1.4784-14.708 0.79894zm-47.973-5.913c-0.05062-0.15186 0.06189-1.0497 0.25003-1.9952 0.2553-1.283 0.27902-1.8719 0.09352-2.3216-0.1367-0.33139-0.66873-1.5543-1.1823-2.7175-1.2945-2.9321-2.5823-6.7087-2.4263-7.1152 0.15294-0.39855 4.816-2.7175 8.1228-4.0395 0.45756-0.18292 0.84732-0.22113 0.97306-0.09539 0.11537 0.11537 0.46767 1.0997 0.78289 2.1875 0.6374 2.1995 2.1825 5.932 3.7366 9.0264 1.0219 2.0348 1.0219 2.0348 0.55875 4.1571-0.45218 2.0718-0.68077 2.4829-1.3883 2.4963-0.1905 0.0036-2.1128 0.15895-4.2718 0.34516-4.8025 0.41423-5.1334 0.41876-5.249 0.07194zm102.64-24.581c-0.21065-0.08547-0.24651-1.0354-0.1453-3.8495 0.14432-4.0128-0.1332-8.2328-0.762-11.587-0.21428-1.143-0.39855-2.4419-0.4095-2.8864-0.0199-0.80818-0.0199-0.80818 2.2892-1.0999 6.2396-0.78832 6.6374-0.7744 7.0253 0.24581 0.11284 0.2968 0.43346 1.8313 0.71248 3.4101 0.62564 3.5399 0.9569 14.278 0.45897 14.878-0.19728 0.2377-0.72891 0.34629-1.7018 0.34762-0.7782 0.0012-2.5579 0.15489-3.9549 0.34185-2.684 0.35921-3.0645 0.38077-3.5124 0.19902zm-99.589-8.9728c-0.5715-0.15999-2.0782-0.56858-3.3482-0.90798-4.0293-1.0768-4.7615-1.3186-4.873-1.6091-0.21182-0.552 0.35934-5.1742 0.94638-7.6586 0.73872-3.1264 2.4962-8.4469 3.1976-9.6806 0.55577-0.97744 1.0251-1.0905 2.4608-0.59296 0.3175 0.11004 1.4605 0.43097 2.54 0.71319 4.6362 1.2121 5.08 1.3747 5.08 1.8615 0 0.25368-0.20993 0.87274-0.46651 1.3757-0.65243 1.2789-1.9618 5.0635-2.5162 7.2732-0.56928 2.2687-1.1736 6.195-1.1736 7.6249 0 1.0344-0.31574 1.9773-0.64312 1.9204-0.09078-0.01576-0.63265-0.15956-1.2041-0.31955zm90.457-25.66c-2.946-3.9104-6.2428-7.2903-9.8124-10.06-1.3018-1.0099-2.3668-1.9596-2.3668-2.1104s1.4544-1.7258 3.232-3.5c3.7543-3.7472 2.9942-3.6643 6.5762-0.71636 3.7702 3.1029 10.05 10.095 10.05 11.19 0 0.44079-5.977 6.4973-6.412 6.4973-0.15771 0-0.72782-0.58545-1.2669-1.301zm-76.742-6.2417c-1.1035-1.3398-3.5998-4.952-4.2604-6.1649-0.48592-0.89214-0.48592-0.89214 0.16715-1.5835 3.0417-3.2201 13.11-10.109 14.775-10.109 0.34621 0 0.71701 0.3393 1.1986 1.0968 0.38354 0.60325 1.3277 1.98 2.098 3.0595 0.77038 1.0795 1.6703 2.3464 1.9998 2.8153s0.52966 0.96491 0.44481 1.1022c-0.08485 0.1373-0.79608 0.54286-1.5805 0.90126-3.4295 1.5669-7.9476 4.7055-11.652 8.0941-1.0521 0.96243-1.9978 1.7794-2.1017 1.8154-0.10387 0.036056-0.59392-0.42627-1.089-1.0274zm48.976-12.571c-2.5823-0.80472-6.1643-1.1946-11.661-1.2693-3.1115-0.04228-5.7462-0.08016-5.855-0.08417-0.10873-4e-3 -0.13063-0.91651-0.04865-2.0278 0.08197-1.1112 0.19399-3.0191 0.24893-4.2397 0.16753-3.7223-0.30814-3.438 5.7533-3.438 5.2403 0 9.9831 0.45996 12.602 1.2222 1.0382 0.30214 1.0382 0.30214 1.0645 1.9068 0.02798 1.7062-0.51574 7.6257-0.73267 7.9767-0.15471 0.25032-0.45104 0.24023-1.3718-0.04672z" fill="#91b2f5"/>
  <path d="m-19.336 93.892c-0.92157-1.0118-0.96381-1.3158-0.5054-3.6368 1.5053-7.6215 2.4854-12.286 2.6072-12.408 0.20722-0.20722 9.2066-1.4719 9.5463-1.3415 0.19002 0.07292 0.29031 0.6114 0.29088 1.5617 0.00141 2.3691 0.88069 3.3948 3.1164 3.6353 1.1545 0.12422 1.1545 0.12422 1.085 1.9715-0.06957 1.8484-0.65416 6.7848-0.87014 7.3476-0.068632 0.17885-2.2663 0.78374-5.4757 1.5071-2.9486 0.66461-5.9569 1.3601-6.6853 1.5455-1.8458 0.46983-2.5531 0.42832-3.1094-0.18247zm63.08-0.92364c-0.31831-0.86934-1.9203-6.8858-2.0322-7.6321-0.15445-1.0302-0.33744-0.94646 2.8451-1.3021 4.7881-0.53503 10.077-1.9283 13.711-3.6121 0.64541-0.29902 1.2514-0.46574 1.3467-0.37049 0.09525 0.09525 0.31724 0.89737 0.49329 1.7825 0.17605 0.88511 0.61968 2.7338 0.98583 4.1082 0.64929 2.4372 0.6549 2.5069 0.22712 2.8216-1.3304 0.97886-8.11 3.0597-12.777 3.9217-3.4572 0.63852-4.6437 0.70842-4.7996 0.28276zm-24.567-2.4952c-1.4231-0.49278-3.5727-1.328-4.7769-1.8561-2.3091-1.0127-2.0572-0.98663-4.9996-0.51731-0.86591 0.13812-0.86591 0.13812-0.83573-2.7209 0.016602-1.5725 0.094532-3.6384 0.17318-4.5909 0.143-1.7318 0.143-1.7318 1.9903-2.2324 1.016-0.27533 2.1191-0.50913 2.4514-0.51955 0.33228-0.01041 1.9948 0.65245 3.6945 1.473 1.6997 0.82059 4.4152 1.9306 6.0345 2.4666 2.6148 0.86567 2.9441 1.033 2.9441 1.4962 0 0.28685-0.0885 0.57624-0.19666 0.64308-0.10816 0.06685-0.37865 0.6185-0.60108 1.2259-0.67225 1.8357-2.6739 5.7917-2.9923 5.9139-0.16403 0.06294-1.4626-0.28874-2.8858-0.78153zm60.247-14.466c-0.1905-0.07138-0.762-0.45734-1.27-0.85769-0.508-0.40034-1.2354-0.92334-1.6164-1.1622-1.4101-0.88411-3.81-2.7568-3.81-2.973 0-0.12284 0.86008-1.1172 1.9113-2.2096 3.1059-3.2278 6.3828-7.8744 7.9522-11.276 0.65576-1.4214 0.86666-1.5944 1.4377-1.1796 0.23416 0.1701 1.1902 0.82571 2.1246 1.4569 2.5335 1.7115 4.3543 3.1584 4.3543 3.4602 0 0.55668-3.4786 6.1983-5.3955 8.7504-2.4714 3.2903-5.2067 6.1711-5.6881 5.9907zm-44.219-4.7022c-4.7282-0.37181-8.9386-1.6042-13.84-4.051-3.7386-1.8663-6.0472-3.5171-8.8792-6.349-2.8064-2.8064-4.5057-5.1719-6.3765-8.8762-5.4975-10.886-5.6092-22.527-0.31884-33.24 5.1372-10.402 14.763-17.511 26.644-19.679 3.191-0.58226 9.2067-0.51804 12.528 0.13375 20.378 3.999 33.265 23.45 28.897 43.613-0.94901 4.3802-2.7976 8.6427-5.5391 12.772-1.9453 2.9302-6.5063 7.4915-9.436 9.4363-7.2658 4.8235-15.177 6.9082-23.679 6.2397zm-49.883-6.037c-0.06693-0.17442 0.03044-1.0399 0.21638-1.9234 0.33808-1.6063 0.33808-1.6063-0.43513-3.3381-1.1866-2.6577-1.8482-4.3228-2.5589-6.4399-0.65029-1.9372-0.65029-1.9372-0.08754-2.4013 0.30951-0.25528 1.2382-0.77182 2.0637-1.1479 0.8255-0.37605 2.1244-0.97075 2.8864-1.3216 1.7066-0.78568 3.0812-1.2807 3.1797-1.145 0.040718 0.05611 0.50972 1.4377 1.0422 3.0702 0.53251 1.6325 1.7121 4.5132 2.6213 6.4016 1.6531 3.4334 1.6531 3.4334 1.2717 5.3446-0.20979 1.0511-0.53079 2.0221-0.71334 2.1576-0.18255 0.13558-2.0785 0.37382-4.2131 0.52943-2.1347 0.15561-4.167 0.3387-4.5164 0.40688-0.41788 0.08155-0.67682 0.01547-0.75689-0.19317zm102.41-29.962c0-5.3427-0.29931-8.6029-1.0682-11.636-0.1887-0.7443-0.27845-1.4179-0.19942-1.4969 0.07902-0.07902 0.78623-0.21058 1.5716-0.29235 0.78535-0.08177 2.6072-0.27734 4.0486-0.43461 2.2094-0.24107 2.6711-0.23545 2.9424 0.0358 0.17695 0.17696 0.59351 1.8774 0.92568 3.7788 0.4776 2.7339 0.6291 4.5038 0.72419 8.4605 0.06614 2.7519 0.05292 5.2717-0.02936 5.5995-0.13679 0.545-0.25314 0.59648-1.3575 0.60063-0.66433 0.0025-2.0391 0.15474-3.0551 0.33831-1.016 0.18357-2.4448 0.33739-3.175 0.34182-1.3277 0.0081-1.3277 0.0081-1.3277-5.2959zm-103.22-4.6443c-2.2225-0.6269-4.2228-1.1609-4.445-1.1868s-0.40409-0.07819-0.40409-0.11636c0-0.78373 1.4058-7.8286 1.981-9.9273 0.95089-3.4695 2.5662-7.6723 3.015-7.8445 0.35504-0.13624 8.3318 1.9434 8.7855 2.2905 0.20295 0.15528 0.07854 0.66542-0.48364 1.9831-1.9298 4.5231-3.5996 11.509-3.5996 15.058 0 0.7255-0.08426 0.91312-0.40409 0.89974-0.22225-0.0093-2.2225-0.52983-4.445-1.1567zm93.679-25.208c-2.5377-3.4185-6.8903-7.7696-10.032-10.029-0.79375-0.57074-1.4432-1.1756-1.4432-1.3442 0-0.39599 5.7371-6.1185 6.1342-6.1185 1.3429 0 11.027 9.6783 12.907 12.898 0.12824 0.21974-0.70749 1.2065-2.7868 3.2905-1.6335 1.6371-3.0973 2.9766-3.2529 2.9766-0.15558 0-0.84212-0.75334-1.5256-1.6741zm-76.433-5.8237c-1.1805-1.4122-4.3149-6.1192-4.3149-6.4797 0-0.59456 4.5852-4.4532 8.1001-6.8166 2.2524-1.5145 6.4284-3.9132 6.8127-3.9132 0.13924 0 1.0664 1.2058 2.0605 2.6796s2.1537 3.0942 2.577 3.6009c0.42335 0.50672 0.76973 1.0516 0.76973 1.2108 0 0.1592-0.43992 0.48707-0.97761 0.72861-3.3156 1.4894-8.376 4.9717-11.931 8.2104-1.0917 0.99456-2.0409 1.809-2.1093 1.8099-0.068356 9.2363e-4 -0.5126-0.46297-0.98722-1.0308zm48.448-12.616c-2.2303-0.69547-6.8789-1.1724-11.776-1.2081-5.08-0.03709-5.08-0.03709-5.0492-0.84527 0.1272-3.335 0.55902-8.1868 0.74522-8.373 0.35784-0.35784 10.16-0.05846 12.617 0.38536 3.2251 0.58258 5.5256 1.0907 5.7078 1.2606 0.16224 0.15131-0.13954 5.7613-0.42708 7.9393-0.15798 1.1966-0.36694 1.2933-1.8171 0.84111z" fill="#6090f1"/>
  <path d="m-18.481 94.235c0-0.09689-0.23233-0.27872-0.51629-0.40409-1.1773-0.51977-1.1515-0.86547 0.77857-10.416 0.49074-2.4284 0.89226-4.5867 0.89226-4.7963 0-0.20961 0.2338-0.47742 0.51955-0.59513 0.72815-0.29995 8.7059-1.4264 8.9656-1.266 0.11718 0.07242 0.21374 0.77498 0.21458 1.5612 0.00238 2.239 1.0064 3.4058 3.1158 3.6209 1.1545 0.11773 1.1545 0.11773 1.0841 1.8495-0.082554 2.0294-0.72573 6.9703-0.93776 7.2039-0.14448 0.15918-7.2508 1.8372-11.172 2.6382-1.1112 0.22696-2.0205 0.49525-2.0205 0.59619 0 0.10094-0.20782 0.18352-0.46182 0.18352s-0.46182-0.07927-0.46182-0.17615zm62.029-2.6525c-0.20489-0.79375-0.6244-2.3784-0.93224-3.5214s-0.59445-2.3899-0.63691-2.7709c-0.06939-0.6226-0.0071-0.69873 0.61553-0.75204 5.3437-0.45756 11.151-1.8646 15.606-3.7813 1.3475-0.57966 1.4599-0.50741 1.6772 1.0781 0.07498 0.54705 0.45048 2.1198 0.83443 3.4949 0.38396 1.3752 0.69878 2.6744 0.69962 2.8873 0.0018 0.46073-3.354 1.8183-7.2721 2.942-2.7413 0.78614-8.2136 1.8665-9.4546 1.8665-0.7444 0-0.77464-0.03837-1.1373-1.4432zm-24.506-1.4141c-1.524-0.54195-3.6541-1.3781-4.7336-1.858-2.0278-0.9016-2.4756-0.94488-4.7914-0.46308-0.75045 0.15614-0.75045 0.15614-0.7494-1.6623 6.928e-4 -1.0001 0.068123-2.9824 0.1501-4.4051 0.14905-2.5867 0.14905-2.5867 2.3339-3.0844 2.1849-0.49773 2.1849-0.49773 5.6804 1.1195 1.9225 0.88946 4.6644 2.0005 6.0932 2.4689s2.5977 0.93132 2.5977 1.0286c0 0.67658-3.4631 7.9192-3.7552 7.8536-0.03016-0.0068-1.3017-0.45574-2.8257-0.9977zm58.06-16.033c-1.2141-0.84958-2.6389-1.8967-3.1663-2.3268-0.95896-0.78214-0.95896-0.78214 1.0714-3.0018 3.2918-3.5986 5.9718-7.4399 7.7913-11.167 0.35646-0.73025 0.70491-1.3277 0.77432-1.3277 0.06941 0 0.86788 0.54552 1.7744 1.2123 0.90649 0.66675 2.3867 1.7218 3.2893 2.3446 0.90264 0.62277 1.6412 1.2288 1.6412 1.3467 0 0.26025-2.5584 4.7337-3.5345 6.18-2.3355 3.4608-6.4755 8.3214-7.0685 8.2988-0.20083-0.0077-1.3585-0.70906-2.5725-1.5586zm-43.282-3.1916c-1.9959-0.29605-4.6266-0.89877-6.5809-1.5078-2.8349-0.8834-8.6684-3.7765-10.737-5.325-2.2558-1.6885-5.5633-5.0204-7.2281-7.2815-1.5749-2.139-4.3581-7.584-5.2231-10.218-3.6131-11.004-1.8322-23.084 4.79-32.492 1.829-2.5983 5.9351-6.7044 8.5334-8.5334 9.4888-6.6793 21.454-8.4463 32.454-4.7928 2.9706 0.98663 6.7908 2.9255 9.4436 4.7928 2.5299 1.7808 6.678 5.9056 8.4487 8.4012 1.5402 2.1707 3.5442 5.9129 4.423 8.2592 2.6517 7.0798 2.9819 15.502 0.89209 22.751-2.9448 10.215-10.354 18.756-19.934 22.981-5.1478 2.2703-8.1278 2.9046-14.085 2.9979-2.4765 0.0388-4.8145 0.02431-5.1955-0.0322zm-48.275-5.8824c-0.05394-0.08728 0.06343-0.87388 0.26083-1.748 0.35891-1.5893 0.35891-1.5893-0.80109-4.1603-1.5035-3.3323-2.9182-7.4297-2.6522-7.6817 0.52409-0.49639 7.3991-3.7035 7.9391-3.7035 0.094755 0 0.3525 0.64943 0.57276 1.4432 0.62309 2.2454 1.7743 5.0983 3.358 8.3215 1.4509 2.9529 1.4509 2.9529 1.0402 4.91-0.34321 1.6354-0.49114 1.974-0.90015 2.06-1.0565 0.22211-8.7252 0.70808-8.8175 0.55876zm102.49-29.936c-0.0063-5.1537-0.40945-9.0893-1.2111-11.825-0.12877-0.43938-0.1572-0.87224-0.06317-0.96191 0.09402-0.08967 0.7944-0.20758 1.5564-0.26202 0.762-0.05444 2.5097-0.23259 3.8838-0.39588 1.4338-0.17039 2.5781-0.2103 2.6856-0.09365 0.25145 0.27305 1.0935 4.9739 1.3894 7.7564 0.258 2.4261 0.32653 9.3823 0.09829 9.977-0.09993 0.26042-0.44786 0.36534-1.2123 0.36557-0.58966 1.73e-4 -1.9553 0.15589-3.0348 0.34605-1.0795 0.19015-2.4404 0.34588-3.0242 0.34605-1.0614 3.16e-4 -1.0614 3.16e-4 -1.0679-5.2529zm-102.7-4.462c-1.778-0.49857-3.6743-1.0239-4.2141-1.1675-0.76391-0.20315-0.98135-0.36946-0.98132-0.75052 9e-5 -0.97762 0.91942-6.0845 1.4806-8.225 1.0884-4.151 2.7804-8.7738 3.212-8.7757 0.14952-6.93e-4 2.1224 0.49291 4.3841 1.0968 3.74 0.99862 4.1023 1.1398 4.0022 1.5598-0.060572 0.254-0.53764 1.5529-1.0601 2.8864-1.497 3.8205-3.0134 10.545-3.0134 13.363 0 0.61822-0.10155 0.9478-0.28864 0.93672-0.15875-0.0094-1.7434-0.42501-3.5214-0.92357zm92.941-25.547c-1.6371-2.2779-6.9599-7.6534-9.4095-9.5026-1.0478-0.79094-1.905-1.5129-1.905-1.6043 0-0.091448 1.2944-1.4576 2.8764-3.0358 2.7083-2.7018 2.9076-2.8528 3.4106-2.5836 0.29381 0.15724 1.8275 1.4017 3.4082 2.7654 2.6382 2.2761 6.4982 6.4328 8.2881 8.9252 0.73039 1.0171 0.73039 1.0171-2.1397 3.9164-1.5785 1.5946-2.9576 2.8964-3.0646 2.8929-0.10699-0.003556-0.76602-0.80168-1.4645-1.7736zm-76.47-5.7822c-1.4209-1.8844-4.117-5.9597-4.117-6.223 0-0.32543 4.2474-3.9534 6.6544-5.684 2.0507-1.4744 7.6066-4.7841 7.9951-4.7627 0.13431 0.0074 0.5629 0.50097 0.95242 1.0968 0.71578 1.0949 3.4186 5.046 3.9875 5.8291 0.28321 0.38982 0.15203 0.50324-1.602 1.3851-4.0324 2.0274-7.0018 4.0989-10.634 7.4183-1.226 1.1205-2.2697 2.0372-2.3194 2.0372-0.049664 0-0.46246-0.49357-0.91732-1.0968zm48.646-12.552c-2.2551-0.7032-6.8728-1.182-11.699-1.213-2.7517-0.0177-5.0622-0.09132-5.1345-0.16361-0.07229-0.07229-0.03247-1.0075 0.08848-2.0782 0.12095-1.0707 0.26151-3.0378 0.31236-4.3713 0.09246-2.4245 0.09246-2.4245 5.3414-2.4013 3.2698 0.01445 5.3057 0.1115 5.3994 0.2574 0.08273 0.12881 0.77388 0.30944 1.5359 0.4014 1.9022 0.22957 5.7259 1.0235 5.9164 1.2284 0.16279 0.17515-0.10476 5.2831-0.38675 7.3837-0.16959 1.2633-0.23765 1.3107-1.3732 0.95656z" fill="#3975ef"/>
 </g>
</svg>
